<svg width="79" height="14" viewBox="0 0 79 14" fill="none" xmlns="http://www.w3.org/2000/svg">
<path fill-rule="evenodd" clip-rule="evenodd" d="M72.4358 9.81282L68.6395 11.8086L69.3645 7.58142L66.2933 4.58768L70.5377 3.97094L72.4358 0.124878L74.3339 3.97094L78.5783 4.58768L75.5071 7.58142L76.2321 11.8086L72.4358 9.81282Z" fill="#F5A623"/>
<path fill-rule="evenodd" clip-rule="evenodd" d="M55.9956 9.81282L52.1993 11.8086L52.9244 7.58142L49.8531 4.58768L54.0975 3.97094L55.9956 0.124878L57.8938 3.97094L62.1381 4.58768L59.0669 7.58142L59.7919 11.8086L55.9956 9.81282Z" fill="#F5A623"/>
<path fill-rule="evenodd" clip-rule="evenodd" d="M39.5554 9.81282L35.7591 11.8086L36.4842 7.58142L33.4129 4.58768L37.6573 3.97094L39.5554 0.124878L41.4536 3.97094L45.6979 4.58768L42.6267 7.58142L43.3517 11.8086L39.5554 9.81282Z" fill="#F5A623"/>
<path fill-rule="evenodd" clip-rule="evenodd" d="M23.1154 9.81282L19.3191 11.8086L20.0441 7.58142L16.9728 4.58768L21.2172 3.97094L23.1154 0.124878L25.0135 3.97094L29.2579 4.58768L26.1866 7.58142L26.9117 11.8086L23.1154 9.81282Z" fill="#F5A623"/>
<path fill-rule="evenodd" clip-rule="evenodd" d="M6.67518 9.81282L2.87889 11.8086L3.60392 7.58142L0.53266 4.58768L4.77704 3.97094L6.67518 0.124878L8.57332 3.97094L12.8177 4.58768L9.74644 7.58142L10.4715 11.8086L6.67518 9.81282Z" fill="#F5A623"/>
</svg>
